<?xml version="1.0" encoding="UTF-8"?>
<svg xmlns="http://www.w3.org/2000/svg" viewBox="0 0 1600 900" width="1600" height="900" role="img" aria-labelledby="title desc">
<title id="title">Multiple Buttons State Detection Wiring</title>
<desc id="desc">Three grounded buttons on GPIO25, GPIO26, and GPIO27 using internal pull-ups</desc>
<rect width="1600" height="900" fill="#f6f8fb"/>
<rect x="28" y="28" width="1544" height="844" rx="30" fill="#ffffff" stroke="#d7dee8" stroke-width="2"/>
<text x="800" y="74" text-anchor="middle" font-family="Inter, Arial, sans-serif" font-size="30" font-weight="800" fill="#102030">Multiple Buttons State Detection Wiring</text>
<text x="800" y="105" text-anchor="middle" font-family="Inter, Arial, sans-serif" font-size="16" font-weight="600" fill="#52616f">Three grounded buttons on GPIO25, GPIO26, and GPIO27 using internal pull-ups</text>
<g id="esp32"><rect x="90" y="150" width="250" height="540" rx="22" fill="#113a5c" stroke="#0a2238" stroke-width="4"/><rect x="150" y="232" width="130" height="190" rx="12" fill="#1f5f8f" stroke="#d7e7f4" stroke-width="2"/><rect x="172" y="170" width="86" height="42" rx="7" fill="#d8dde5" stroke="#8894a2" stroke-width="2"/><text x="215" y="132" text-anchor="middle" font-family="Inter, Arial, sans-serif" font-size="24" font-weight="700" fill="#102030">ESP32 DevKit</text><text x="215" y="320" text-anchor="middle" font-family="Inter, Arial, sans-serif" font-size="18" font-weight="700" fill="#ffffff">ESP32-WROOM</text><text x="215" y="355" text-anchor="middle" font-family="Inter, Arial, sans-serif" font-size="13" font-weight="600" fill="#cde7f7">3.3 V logic</text><circle cx="340" cy="232" r="10" fill="#fff" stroke="#c1121f" stroke-width="4"/><text x="358" y="237" text-anchor="start" font-family="Inter, Arial, sans-serif" font-size="16" font-weight="700" fill="#c1121f">3V3</text><circle cx="340" cy="570" r="10" fill="#fff" stroke="#111111" stroke-width="4"/><text x="358" y="575" text-anchor="start" font-family="Inter, Arial, sans-serif" font-size="16" font-weight="700" fill="#111111">GND</text><circle cx="340" cy="270" r="10" fill="#fff" stroke="#e87500" stroke-width="4"/><text x="358" y="275" text-anchor="start" font-family="Inter, Arial, sans-serif" font-size="16" font-weight="700" fill="#e87500">GPIO25 IN</text><circle cx="340" cy="350" r="10" fill="#fff" stroke="#e87500" stroke-width="4"/><text x="358" y="355" text-anchor="start" font-family="Inter, Arial, sans-serif" font-size="16" font-weight="700" fill="#e87500">GPIO26 IN</text><circle cx="340" cy="430" r="10" fill="#fff" stroke="#e87500" stroke-width="4"/><text x="358" y="435" text-anchor="start" font-family="Inter, Arial, sans-serif" font-size="16" font-weight="700" fill="#e87500">GPIO27 IN</text><circle cx="112" cy="230" r="4" fill="#c7d2de"/><circle cx="318" cy="230" r="4" fill="#c7d2de"/><circle cx="112" cy="264" r="4" fill="#c7d2de"/><circle cx="318" cy="264" r="4" fill="#c7d2de"/><circle cx="112" cy="298" r="4" fill="#c7d2de"/><circle cx="318" cy="298" r="4" fill="#c7d2de"/><circle cx="112" cy="332" r="4" fill="#c7d2de"/><circle cx="318" cy="332" r="4" fill="#c7d2de"/><circle cx="112" cy="366" r="4" fill="#c7d2de"/><circle cx="318" cy="366" r="4" fill="#c7d2de"/><circle cx="112" cy="400" r="4" fill="#c7d2de"/><circle cx="318" cy="400" r="4" fill="#c7d2de"/><circle cx="112" cy="434" r="4" fill="#c7d2de"/><circle cx="318" cy="434" r="4" fill="#c7d2de"/><circle cx="112" cy="468" r="4" fill="#c7d2de"/><circle cx="318" cy="468" r="4" fill="#c7d2de"/><circle cx="112" cy="502" r="4" fill="#c7d2de"/><circle cx="318" cy="502" r="4" fill="#c7d2de"/><circle cx="112" cy="536" r="4" fill="#c7d2de"/><circle cx="318" cy="536" r="4" fill="#c7d2de"/><circle cx="112" cy="570" r="4" fill="#c7d2de"/><circle cx="318" cy="570" r="4" fill="#c7d2de"/><circle cx="112" cy="604" r="4" fill="#c7d2de"/><circle cx="318" cy="604" r="4" fill="#c7d2de"/></g><g id="breadboard"><rect x="470" y="160" width="820" height="480" rx="24" fill="#fbfcfd" stroke="#c8d2dc" stroke-width="4"/><rect x="498" y="188" width="764" height="38" rx="8" fill="#fff2f2" stroke="#f1cccc"/><rect x="498" y="574" width="764" height="38" rx="8" fill="#f2f5ff" stroke="#cdd6f5"/><line x1="498" y1="207" x2="1262" y2="207" stroke="#c1121f" stroke-width="3"/><line x1="498" y1="593" x2="1262" y2="593" stroke="#111" stroke-width="3"/><rect x="530" y="260" width="700" height="280" rx="12" fill="#ffffff" stroke="#e3e8ef"/><line x1="530" y1="400" x2="1230" y2="400" stroke="#cfd8e3" stroke-width="5" stroke-dasharray="14 10"/><circle cx="562" cy="300" r="3.5" fill="#d8dee8"/><circle cx="598" cy="300" r="3.5" fill="#d8dee8"/><circle cx="634" cy="300" r="3.5" fill="#d8dee8"/><circle cx="670" cy="300" r="3.5" fill="#d8dee8"/><circle cx="706" cy="300" r="3.5" fill="#d8dee8"/><circle cx="742" cy="300" r="3.5" fill="#d8dee8"/><circle cx="778" cy="300" r="3.5" fill="#d8dee8"/><circle cx="814" cy="300" r="3.5" fill="#d8dee8"/><circle cx="850" cy="300" r="3.5" fill="#d8dee8"/><circle cx="886" cy="300" r="3.5" fill="#d8dee8"/><circle cx="922" cy="300" r="3.5" fill="#d8dee8"/><circle cx="958" cy="300" r="3.5" fill="#d8dee8"/><circle cx="994" cy="300" r="3.5" fill="#d8dee8"/><circle cx="1030" cy="300" r="3.5" fill="#d8dee8"/><circle cx="1066" cy="300" r="3.5" fill="#d8dee8"/><circle cx="1102" cy="300" r="3.5" fill="#d8dee8"/><circle cx="1138" cy="300" r="3.5" fill="#d8dee8"/><circle cx="1174" cy="300" r="3.5" fill="#d8dee8"/><circle cx="562" cy="340" r="3.5" fill="#d8dee8"/><circle cx="598" cy="340" r="3.5" fill="#d8dee8"/><circle cx="634" cy="340" r="3.5" fill="#d8dee8"/><circle cx="670" cy="340" r="3.5" fill="#d8dee8"/><circle cx="706" cy="340" r="3.5" fill="#d8dee8"/><circle cx="742" cy="340" r="3.5" fill="#d8dee8"/><circle cx="778" cy="340" r="3.5" fill="#d8dee8"/><circle cx="814" cy="340" r="3.5" fill="#d8dee8"/><circle cx="850" cy="340" r="3.5" fill="#d8dee8"/><circle cx="886" cy="340" r="3.5" fill="#d8dee8"/><circle cx="922" cy="340" r="3.5" fill="#d8dee8"/><circle cx="958" cy="340" r="3.5" fill="#d8dee8"/><circle cx="994" cy="340" r="3.5" fill="#d8dee8"/><circle cx="1030" cy="340" r="3.5" fill="#d8dee8"/><circle cx="1066" cy="340" r="3.5" fill="#d8dee8"/><circle cx="1102" cy="340" r="3.5" fill="#d8dee8"/><circle cx="1138" cy="340" r="3.5" fill="#d8dee8"/><circle cx="1174" cy="340" r="3.5" fill="#d8dee8"/><circle cx="562" cy="380" r="3.5" fill="#d8dee8"/><circle cx="598" cy="380" r="3.5" fill="#d8dee8"/><circle cx="634" cy="380" r="3.5" fill="#d8dee8"/><circle cx="670" cy="380" r="3.5" fill="#d8dee8"/><circle cx="706" cy="380" r="3.5" fill="#d8dee8"/><circle cx="742" cy="380" r="3.5" fill="#d8dee8"/><circle cx="778" cy="380" r="3.5" fill="#d8dee8"/><circle cx="814" cy="380" r="3.5" fill="#d8dee8"/><circle cx="850" cy="380" r="3.5" fill="#d8dee8"/><circle cx="886" cy="380" r="3.5" fill="#d8dee8"/><circle cx="922" cy="380" r="3.5" fill="#d8dee8"/><circle cx="958" cy="380" r="3.5" fill="#d8dee8"/><circle cx="994" cy="380" r="3.5" fill="#d8dee8"/><circle cx="1030" cy="380" r="3.5" fill="#d8dee8"/><circle cx="1066" cy="380" r="3.5" fill="#d8dee8"/><circle cx="1102" cy="380" r="3.5" fill="#d8dee8"/><circle cx="1138" cy="380" r="3.5" fill="#d8dee8"/><circle cx="1174" cy="380" r="3.5" fill="#d8dee8"/><circle cx="562" cy="460" r="3.5" fill="#d8dee8"/><circle cx="598" cy="460" r="3.5" fill="#d8dee8"/><circle cx="634" cy="460" r="3.5" fill="#d8dee8"/><circle cx="670" cy="460" r="3.5" fill="#d8dee8"/><circle cx="706" cy="460" r="3.5" fill="#d8dee8"/><circle cx="742" cy="460" r="3.5" fill="#d8dee8"/><circle cx="778" cy="460" r="3.5" fill="#d8dee8"/><circle cx="814" cy="460" r="3.5" fill="#d8dee8"/><circle cx="850" cy="460" r="3.5" fill="#d8dee8"/><circle cx="886" cy="460" r="3.5" fill="#d8dee8"/><circle cx="922" cy="460" r="3.5" fill="#d8dee8"/><circle cx="958" cy="460" r="3.5" fill="#d8dee8"/><circle cx="994" cy="460" r="3.5" fill="#d8dee8"/><circle cx="1030" cy="460" r="3.5" fill="#d8dee8"/><circle cx="1066" cy="460" r="3.5" fill="#d8dee8"/><circle cx="1102" cy="460" r="3.5" fill="#d8dee8"/><circle cx="1138" cy="460" r="3.5" fill="#d8dee8"/><circle cx="1174" cy="460" r="3.5" fill="#d8dee8"/><circle cx="562" cy="500" r="3.5" fill="#d8dee8"/><circle cx="598" cy="500" r="3.5" fill="#d8dee8"/><circle cx="634" cy="500" r="3.5" fill="#d8dee8"/><circle cx="670" cy="500" r="3.5" fill="#d8dee8"/><circle cx="706" cy="500" r="3.5" fill="#d8dee8"/><circle cx="742" cy="500" r="3.5" fill="#d8dee8"/><circle cx="778" cy="500" r="3.5" fill="#d8dee8"/><circle cx="814" cy="500" r="3.5" fill="#d8dee8"/><circle cx="850" cy="500" r="3.5" fill="#d8dee8"/><circle cx="886" cy="500" r="3.5" fill="#d8dee8"/><circle cx="922" cy="500" r="3.5" fill="#d8dee8"/><circle cx="958" cy="500" r="3.5" fill="#d8dee8"/><circle cx="994" cy="500" r="3.5" fill="#d8dee8"/><circle cx="1030" cy="500" r="3.5" fill="#d8dee8"/><circle cx="1066" cy="500" r="3.5" fill="#d8dee8"/><circle cx="1102" cy="500" r="3.5" fill="#d8dee8"/><circle cx="1138" cy="500" r="3.5" fill="#d8dee8"/><circle cx="1174" cy="500" r="3.5" fill="#d8dee8"/><circle cx="562" cy="540" r="3.5" fill="#d8dee8"/><circle cx="598" cy="540" r="3.5" fill="#d8dee8"/><circle cx="634" cy="540" r="3.5" fill="#d8dee8"/><circle cx="670" cy="540" r="3.5" fill="#d8dee8"/><circle cx="706" cy="540" r="3.5" fill="#d8dee8"/><circle cx="742" cy="540" r="3.5" fill="#d8dee8"/><circle cx="778" cy="540" r="3.5" fill="#d8dee8"/><circle cx="814" cy="540" r="3.5" fill="#d8dee8"/><circle cx="850" cy="540" r="3.5" fill="#d8dee8"/><circle cx="886" cy="540" r="3.5" fill="#d8dee8"/><circle cx="922" cy="540" r="3.5" fill="#d8dee8"/><circle cx="958" cy="540" r="3.5" fill="#d8dee8"/><circle cx="994" cy="540" r="3.5" fill="#d8dee8"/><circle cx="1030" cy="540" r="3.5" fill="#d8dee8"/><circle cx="1066" cy="540" r="3.5" fill="#d8dee8"/><circle cx="1102" cy="540" r="3.5" fill="#d8dee8"/><circle cx="1138" cy="540" r="3.5" fill="#d8dee8"/><circle cx="1174" cy="540" r="3.5" fill="#d8dee8"/><text x="880" y="138" text-anchor="middle" font-family="Inter, Arial, sans-serif" font-size="18" font-weight="700" fill="#26313d">Breadboard</text></g><g><rect x="620" y="258" width="140" height="84" rx="14" fill="#e8edf3" stroke="#4b5563" stroke-width="3"/><circle cx="690" cy="300" r="25" fill="#c7d2de" stroke="#667085" stroke-width="3"/><line x1="598" y1="278" x2="620" y2="278" stroke="#333" stroke-width="5"/><line x1="760" y1="322" x2="782" y2="322" stroke="#333" stroke-width="5"/><text x="690" y="242" text-anchor="middle" font-family="Inter, Arial, sans-serif" font-size="14" font-weight="700" fill="#26313d">Button 1</text></g><g><rect x="810" y="363" width="140" height="84" rx="14" fill="#e8edf3" stroke="#4b5563" stroke-width="3"/><circle cx="880" cy="405" r="25" fill="#c7d2de" stroke="#667085" stroke-width="3"/><line x1="788" y1="383" x2="810" y2="383" stroke="#333" stroke-width="5"/><line x1="950" y1="427" x2="972" y2="427" stroke="#333" stroke-width="5"/><text x="880" y="347" text-anchor="middle" font-family="Inter, Arial, sans-serif" font-size="14" font-weight="700" fill="#26313d">Button 2</text></g><g><rect x="1000" y="468" width="140" height="84" rx="14" fill="#e8edf3" stroke="#4b5563" stroke-width="3"/><circle cx="1070" cy="510" r="25" fill="#c7d2de" stroke="#667085" stroke-width="3"/><line x1="978" y1="488" x2="1000" y2="488" stroke="#333" stroke-width="5"/><line x1="1140" y1="532" x2="1162" y2="532" stroke="#333" stroke-width="5"/><text x="1070" y="452" text-anchor="middle" font-family="Inter, Arial, sans-serif" font-size="14" font-weight="700" fill="#26313d">Button 3</text></g><path d="M340 270 C455 258, 570 285, 598 278" fill="none" stroke="#e87500" stroke-width="7" stroke-linecap="round" stroke-linejoin="round"/><text x="455" y="246" text-anchor="start" font-family="Inter, Arial, sans-serif" font-size="12" font-weight="600" fill="#e87500">GPIO25</text><path d="M340 350 C520 355, 690 387, 788 383" fill="none" stroke="#e87500" stroke-width="7" stroke-linecap="round" stroke-linejoin="round"/><text x="500" y="366" text-anchor="start" font-family="Inter, Arial, sans-serif" font-size="12" font-weight="600" fill="#e87500">GPIO26</text><path d="M340 430 C560 468, 820 498, 978 488" fill="none" stroke="#e87500" stroke-width="7" stroke-linecap="round" stroke-linejoin="round"/><text x="545" y="480" text-anchor="start" font-family="Inter, Arial, sans-serif" font-size="12" font-weight="600" fill="#e87500">GPIO27</text><path d="M782 322 C740 620, 540 655, 340 570" fill="none" stroke="#111111" stroke-width="7" stroke-linecap="round" stroke-linejoin="round"/><path d="M972 427 C875 620, 610 670, 340 570" fill="none" stroke="#111111" stroke-width="7" stroke-linecap="round" stroke-linejoin="round"/><path d="M1162 532 C1040 650, 720 705, 340 570" fill="none" stroke="#111111" stroke-width="7" stroke-linecap="round" stroke-linejoin="round"/><text x="1000" y="676" text-anchor="start" font-family="Inter, Arial, sans-serif" font-size="12" font-weight="600" fill="#111111">Common GND</text><rect x="1195" y="265" width="300" height="138" rx="10" fill="#ffffff" stroke="#cfd8e3" stroke-width="1.5"/><text x="1209" y="289" text-anchor="start" font-family="Inter, Arial, sans-serif" font-size="15" font-weight="700" fill="#17212b">All inputs use INPUT_PULLUP</text><text x="1209" y="307" text-anchor="start" font-family="Inter, Arial, sans-serif" font-size="13" font-weight="500" fill="#52616f">No external resistors; released = HIGH; pressed = LOW</text>
</svg>
