<svg xmlns="http://www.w3.org/2000/svg" width="1600" height="900" viewBox="0 0 1600 900" role="img" aria-labelledby="title desc">
<title id="title">1-Channel Relay Module</title>
<desc id="desc">Production wiring diagram for ESP32 Engine component reference.</desc>
<defs><filter id="shadow" x="-20%" y="-20%" width="140%" height="140%"><feDropShadow dx="0" dy="8" stdDeviation="10" flood-color="#0b1b2b" flood-opacity="0.16"/></filter><style><![CDATA[.label{font:700 30px Arial,sans-serif;fill:#0b1b2b}.small{font:600 24px Arial,sans-serif;fill:#334155}.tiny{font:600 19px Arial,sans-serif;fill:#334155}.note{font:700 22px Arial,sans-serif;fill:#7c2d12}.pin{fill:#f8fafc;stroke:#475569;stroke-width:3}.board{fill:#0f766e;stroke:#0f172a;stroke-width:4}.module{fill:#f8fafc;stroke:#0f172a;stroke-width:4}.wire{fill:none;stroke-width:9;stroke-linecap:round;stroke-linejoin:round}.red{stroke:#dc2626}.black{stroke:#111827}.orange{stroke:#f97316}.blue{stroke:#2563eb}.green{stroke:#16a34a}.purple{stroke:#7c3aed}.yellow{stroke:#eab308}.gray{stroke:#64748b}.res{fill:#fde68a;stroke:#92400e;stroke-width:3}.load{fill:#e0f2fe;stroke:#075985;stroke-width:4}]]></style></defs><rect width="1600" height="900" fill="#f8fafc"/><text x="70" y="72" class="label">1-Channel Relay Module</text><g filter="url(#shadow)"><rect class="board" x="80" y="170" rx="28" width="300" height="580"/><rect x="166" y="204" width="128" height="82" rx="16" fill="#dbeafe" stroke="#0f172a" stroke-width="3"/><text x="230" y="256" text-anchor="middle" class="small">ESP32</text><rect x="180" y="650" width="100" height="62" rx="12" fill="#e5e7eb" stroke="#0f172a" stroke-width="3"/><text x="230" y="690" text-anchor="middle" class="tiny">USB</text><rect class="pin" x="52" y="212" width="28" height="18"/><rect class="pin" x="380" y="212" width="28" height="18"/><rect class="pin" x="52" y="257" width="28" height="18"/><rect class="pin" x="380" y="257" width="28" height="18"/><rect class="pin" x="52" y="302" width="28" height="18"/><rect class="pin" x="380" y="302" width="28" height="18"/><rect class="pin" x="52" y="347" width="28" height="18"/><rect class="pin" x="380" y="347" width="28" height="18"/><rect class="pin" x="52" y="392" width="28" height="18"/><rect class="pin" x="380" y="392" width="28" height="18"/><rect class="pin" x="52" y="437" width="28" height="18"/><rect class="pin" x="380" y="437" width="28" height="18"/><rect class="pin" x="52" y="482" width="28" height="18"/><rect class="pin" x="380" y="482" width="28" height="18"/><rect class="pin" x="52" y="527" width="28" height="18"/><rect class="pin" x="380" y="527" width="28" height="18"/><rect class="pin" x="52" y="572" width="28" height="18"/><rect class="pin" x="380" y="572" width="28" height="18"/><rect class="pin" x="52" y="617" width="28" height="18"/><rect class="pin" x="380" y="617" width="28" height="18"/><rect class="pin" x="52" y="662" width="28" height="18"/><rect class="pin" x="380" y="662" width="28" height="18"/></g><g filter="url(#shadow)"><rect class="module" x="690" y="220" rx="22" width="320" height="330"/><rect x="740" y="275" width="220" height="115" rx="16" fill="#dbeafe" stroke="#334155" stroke-width="4"/><text x="850" y="350" text-anchor="middle" class="label">RELAY</text><text x="715" y="250" class="tiny">VCC</text><text x="715" y="300" class="tiny">GND</text><text x="715" y="350" class="tiny">IN</text><text x="880" y="510" class="tiny">COM</text><text x="965" y="510" class="tiny">NO</text></g><g filter="url(#shadow)"><rect class="load" x="1210" y="455" rx="18" width="180" height="92"/><text x="1300" y="512" text-anchor="middle" class="small">DC LOAD</text><rect class="module" x="1110" y="660" rx="16" width="220" height="80"/><text x="1220" y="710" text-anchor="middle" class="small">Low-voltage supply</text></g><polyline class="wire red" points="380,250 690,250"/><polyline class="wire black" points="380,640 610,640 610,300 690,300"/><polyline class="wire orange" points="380,430 620,430 620,350 690,350"/><polyline class="wire blue" points="1220,660 1220,585 882,585 882,510"/><polyline class="wire blue" points="965,510 965,500 1210,500"/><polyline class="wire black" points="1390,500 1450,500 1450,735 1220,735 1220,740"/><rect x="392" y="403" width="135" height="34" rx="8" fill="#fff" stroke="#cbd5e1"/><text x="400" y="426" class="tiny">GPIO26 IN</text><rect x="392" y="223" width="90" height="34" rx="8" fill="#fff" stroke="#cbd5e1"/><text x="400" y="246" class="tiny">5V</text><rect x="392" y="613" width="90" height="34" rx="8" fill="#fff" stroke="#cbd5e1"/><text x="400" y="636" class="tiny">GND</text><text x="1070" y="205" class="note">Control side and load side are separate</text><text x="1088" y="252" class="small">COM -&gt; NO switches low-voltage load</text><text x="1088" y="290" class="small">Use COM and NO for off by default</text></svg>
