<svg xmlns="http://www.w3.org/2000/svg" viewBox="0 0 1600 900" role="img" aria-labelledby="title desc"><title id="title">ESP32 Line Following Robot</title><desc id="desc">Premium ESP32 Engine illustration for ESP32 Line Following Robot</desc><defs><linearGradient id="bg" x1="0" y1="0" x2="1" y2="1"><stop stop-color="#F8FCFF"/><stop offset=".55" stop-color="#EEF8FF"/><stop offset="1" stop-color="#F6FFFB"/></linearGradient><radialGradient id="glow" cx="62%" cy="47%" r="52%"><stop stop-color="#2563EB" stop-opacity=".28"/><stop offset=".48" stop-color="#00C896" stop-opacity=".12"/><stop offset="1" stop-color="#2563EB" stop-opacity="0"/></radialGradient><filter id="shadow" x="-20%" y="-20%" width="140%" height="150%"><feDropShadow dx="0" dy="24" stdDeviation="22" flood-color="#0F172A" flood-opacity=".18"/></filter><pattern id="dots" width="42" height="42" patternUnits="userSpaceOnUse"><circle cx="4" cy="4" r="2" fill="#0F172A" opacity=".045"/></pattern></defs><rect width="1600" height="900" fill="url(#bg)"/><rect width="1600" height="900" fill="url(#dots)"/><rect width="1600" height="900" fill="url(#glow)"/><g opacity=".18" stroke="#2563EB" stroke-width="2" fill="none" stroke-linecap="round"><path d="M70 120H210v70h120"/><path d="M1510 750h-150v-90h-120"/><path d="M180 810v-90h100"/><path d="M1300 90v105h170"/><circle cx="210" cy="120" r="6" fill="#2563EB" stroke="none"/><circle cx="330" cy="190" r="5" fill="#2563EB" stroke="none"/><circle cx="1510" cy="750" r="6" fill="#2563EB" stroke="none"/><circle cx="1300" cy="90" r="5" fill="#2563EB" stroke="none"/></g><ellipse cx="800.0" cy="795" rx="624.0" ry="54" fill="#0F172A" opacity=".10"/><g><rect x="70" y="54" width="214" height="40" rx="20" fill="#2563EB" opacity=".12"/><text x="94" y="81" font-family="Inter,Arial,sans-serif" font-size="20" font-weight="800" fill="#2563EB" letter-spacing="2">FLAGSHIP PROJECT</text><text x="70" y="118" font-family="Inter,Arial,sans-serif" font-size="52" font-weight="850" fill="#0F172A">ESP32 Line Following Robot</text><text x="72" y="165" font-family="Inter,Arial,sans-serif" font-size="24" font-weight="700" fill="#475569">Robotics / ESP32 Engine</text></g><g filter="url(#shadow)"><path d="M500 565 C675 495 735 415 930 395" fill="none" stroke="#EF4444" stroke-width="8" stroke-linecap="round" stroke-linejoin="round" opacity=".9"/><path d="M500 605 C690 585 762 550 938 515" fill="none" stroke="#111827" stroke-width="8" stroke-linecap="round" stroke-linejoin="round" opacity=".9"/><path d="M500 645 C680 685 790 645 975 600" fill="none" stroke="#2563EB" stroke-width="8" stroke-linecap="round" stroke-linejoin="round" opacity=".9"/><g class="esp32-board" transform="translate(210 430) scale(0.82)"><rect x="0" y="0" width="420" height="270" rx="28" fill="#0B1728" stroke="#2563EB" stroke-width="7"/><rect x="72" y="54" width="276" height="148" rx="18" fill="#132A43" stroke="rgba(255,255,255,.18)" stroke-width="4"/><rect x="126" y="88" width="168" height="82" rx="12" fill="#183B5B" stroke="#00C896" stroke-width="4"/><text x="210" y="139" text-anchor="middle" font-family="Inter,Arial,sans-serif" font-size="37" font-weight="800" fill="#EAF7FF">ESP32</text><text x="210" y="168" text-anchor="middle" font-family="JetBrains Mono,Consolas,monospace" font-size="18" fill="#00C896">DEVKIT</text><rect x="176" y="234" width="68" height="25" rx="8" fill="#DCEBFF" opacity=".9"/><circle cx="368" cy="42" r="12" fill="#00C896"/><circle cx="330" cy="42" r="11" fill="#FFD54F"/><g stroke="#9DD7FF" stroke-width="6" stroke-linecap="round" opacity=".75"><path d="M0 54h-42M0 92h-42M0 130h-42M0 168h-42M0 206h-42M420 54h42M420 92h42M420 130h42M420 168h42M420 206h42"/></g></g><g transform="translate(930 275) scale(1.28)"><ellipse cx="150" cy="220" rx="170" ry="35" fill="#09111F" opacity=".18"/><rect x="32" y="52" width="236" height="136" rx="30" fill="#F8FCFF" stroke="#2563EB" stroke-width="5"/><circle cx="54" cy="196" r="38" fill="#172033" stroke="#2563EB" stroke-width="5"/><circle cx="246" cy="196" r="38" fill="#172033" stroke="#2563EB" stroke-width="5"/><rect x="78" y="90" width="144" height="56" rx="14" fill="#0B1728"/><text x="150" y="126" text-anchor="middle" font-family="Inter,Arial,sans-serif" font-size="30" font-weight="800" fill="#00C896">LINE</text><rect x="78" y="28" width="144" height="33" rx="10" fill="#00C896" opacity=".18" stroke="#00C896" stroke-width="3"/><text x="150" y="51" text-anchor="middle" font-family="Inter,Arial,sans-serif" font-size="17" font-weight="800" fill="#075E64">IR ARRAY</text><path d="M-35 248h370" stroke="#111827" stroke-width="14" stroke-linecap="round"/></g></g><g opacity=".9"><circle cx="1482" cy="96" r="10" fill="#00C896"/><circle cx="1450" cy="96" r="8" fill="#2563EB"/><path d="M1380 96h44" stroke="#2563EB" stroke-width="5" stroke-linecap="round" opacity=".45"/></g></svg>
