<svg xmlns="http://www.w3.org/2000/svg" viewBox="0 0 1200 750" role="img" aria-labelledby="title desc"><title id="title">ESP32 Home Climate Automation placeholder</title><desc id="desc">Branded ESP32 Engine placeholder for ESP32 Home Climate Automation</desc><defs><linearGradient id="bg" x1="0" y1="0" x2="1" y2="1"><stop stop-color="#07111F"/><stop offset="1" stop-color="#0B2537"/></linearGradient><radialGradient id="glow" cx="58%" cy="45%" r="55%"><stop stop-color="#0099FF" stop-opacity=".28"/><stop offset="1" stop-color="#7C3AED" stop-opacity="0"/></radialGradient><pattern id="grid" width="48" height="48" patternUnits="userSpaceOnUse"><path d="M48 0H0V48" fill="none" stroke="#DDF7FF" stroke-opacity=".06" stroke-width="1"/></pattern></defs><rect width="1200" height="750" fill="url(#bg)"/><rect width="1200" height="750" fill="url(#grid)"/><rect width="1200" height="750" fill="url(#glow)"/><g opacity=".18" stroke="#0099FF" stroke-width="2" fill="none" stroke-linecap="round"><path d="M70 120H210v70h120"/><path d="M1110 600h-150v-90h-120"/><path d="M180 660v-90h100"/><path d="M900 90v105h170"/><circle cx="210" cy="120" r="6" fill="#0099FF" stroke="none"/><circle cx="330" cy="190" r="5" fill="#0099FF" stroke="none"/><circle cx="1110" cy="600" r="6" fill="#0099FF" stroke="none"/><circle cx="900" cy="90" r="5" fill="#0099FF" stroke="none"/></g><g transform="translate(130 250) scale(.72)" opacity=".95"><g class="esp32-board" transform="translate(0 0) scale(1)"><rect x="0" y="0" width="420" height="270" rx="28" fill="#0B1728" stroke="#0099FF" stroke-width="7"/><rect x="72" y="54" width="276" height="148" rx="18" fill="#132A43" stroke="rgba(255,255,255,.18)" stroke-width="4"/><rect x="126" y="88" width="168" height="82" rx="12" fill="#183B5B" stroke="#7C3AED" stroke-width="4"/><text x="210" y="139" text-anchor="middle" font-family="Inter,Arial,sans-serif" font-size="37" font-weight="800" fill="#EAF7FF">ESP32</text><text x="210" y="168" text-anchor="middle" font-family="JetBrains Mono,Consolas,monospace" font-size="18" fill="#7C3AED">DEVKIT</text><rect x="176" y="234" width="68" height="25" rx="8" fill="#DCEBFF" opacity=".9"/><circle cx="368" cy="42" r="12" fill="#7C3AED"/><circle cx="330" cy="42" r="11" fill="#FFD54F"/><g stroke="#9DD7FF" stroke-width="6" stroke-linecap="round" opacity=".75"><path d="M0 54h-42M0 92h-42M0 130h-42M0 168h-42M0 206h-42M420 54h42M420 92h42M420 130h42M420 168h42M420 206h42"/></g></g></g><g transform="translate(690 240) scale(.86)" opacity=".9"><g transform="translate(0 0) scale(0.9)"><path d="M0 92L150 0l150 92v146H0z" fill="#F8FCFF" stroke="#0099FF" stroke-width="5" stroke-linejoin="round"/><rect x="82" y="98" width="136" height="82" rx="20" fill="#101A2B" stroke="#7C3AED" stroke-width="4"/><text x="150" y="149" text-anchor="middle" font-family="JetBrains Mono,Consolas,monospace" font-size="40" font-weight="800" fill="#0099FF">21 C</text><text x="150" y="174" text-anchor="middle" font-family="Inter,Arial,sans-serif" font-size="15" fill="#7C3AED">FAN</text><rect x="28" y="132" width="40" height="42" rx="7" fill="#0099FF" opacity=".16"/><rect x="232" y="132" width="40" height="42" rx="7" fill="#7C3AED" opacity=".18"/></g></g><text x="90" y="104" font-family="Inter,Arial,sans-serif" font-size="22" font-weight="800" fill="#7C3AED" letter-spacing="3">ESP32 ENGINE ARTWORK</text><text x="90" y="168" font-family="Inter,Arial,sans-serif" font-size="48" font-weight="850" fill="#F8FCFF">ESP32 Home Climate Automation</text><text x="92" y="212" font-family="Inter,Arial,sans-serif" font-size="24" font-weight="700" fill="#A8C6D8">Home Automation branded placeholder</text></svg>
