<svg xmlns="http://www.w3.org/2000/svg" viewBox="0 0 1200 750" role="img" aria-labelledby="title desc"><title id="title">ESP32 Smart Irrigation System</title><desc id="desc">Premium ESP32 Engine illustration for ESP32 Smart Irrigation System</desc><defs><linearGradient id="bg" x1="0" y1="0" x2="1" y2="1"><stop stop-color="#F8FCFF"/><stop offset=".55" stop-color="#EEF8FF"/><stop offset="1" stop-color="#F6FFFB"/></linearGradient><radialGradient id="glow" cx="62%" cy="47%" r="52%"><stop stop-color="#00A884" stop-opacity=".28"/><stop offset=".48" stop-color="#0099FF" stop-opacity=".12"/><stop offset="1" stop-color="#00A884" stop-opacity="0"/></radialGradient><filter id="shadow" x="-20%" y="-20%" width="140%" height="150%"><feDropShadow dx="0" dy="24" stdDeviation="22" flood-color="#0F172A" flood-opacity=".18"/></filter><pattern id="dots" width="42" height="42" patternUnits="userSpaceOnUse"><circle cx="4" cy="4" r="2" fill="#0F172A" opacity=".045"/></pattern></defs><rect width="1200" height="750" fill="url(#bg)"/><rect width="1200" height="750" fill="url(#dots)"/><rect width="1200" height="750" fill="url(#glow)"/><g opacity=".18" stroke="#00A884" stroke-width="2" fill="none" stroke-linecap="round"><path d="M70 120H210v70h120"/><path d="M1110 600h-150v-90h-120"/><path d="M180 660v-90h100"/><path d="M900 90v105h170"/><circle cx="210" cy="120" r="6" fill="#00A884" stroke="none"/><circle cx="330" cy="190" r="5" fill="#00A884" stroke="none"/><circle cx="1110" cy="600" r="6" fill="#00A884" stroke="none"/><circle cx="900" cy="90" r="5" fill="#00A884" stroke="none"/></g><ellipse cx="600.0" cy="645" rx="468.0" ry="54" fill="#0F172A" opacity=".10"/><g><rect x="70" y="54" width="214" height="40" rx="20" fill="#00A884" opacity=".12"/><text x="94" y="81" font-family="Inter,Arial,sans-serif" font-size="20" font-weight="800" fill="#00A884" letter-spacing="2">FLAGSHIP PROJECT</text><text x="70" y="82" font-family="Inter,Arial,sans-serif" font-size="34" font-weight="850" fill="#0F172A">ESP32 Smart Irrigation System</text><text x="72" y="120" font-family="Inter,Arial,sans-serif" font-size="24" font-weight="700" fill="#475569">Agriculture / ESP32 Engine</text></g><g filter="url(#shadow)"><path d="M360 472 C500 430 585 352 720 330" fill="none" stroke="#EF4444" stroke-width="8" stroke-linecap="round" stroke-linejoin="round" opacity=".9"/><path d="M360 502 C515 510 610 448 720 430" fill="none" stroke="#111827" stroke-width="8" stroke-linecap="round" stroke-linejoin="round" opacity=".9"/><path d="M360 532 C520 590 620 535 745 500" fill="none" stroke="#00A884" stroke-width="8" stroke-linecap="round" stroke-linejoin="round" opacity=".9"/><g class="esp32-board" transform="translate(118 350) scale(0.58)"><rect x="0" y="0" width="420" height="270" rx="28" fill="#0B1728" stroke="#00A884" stroke-width="7"/><rect x="72" y="54" width="276" height="148" rx="18" fill="#132A43" stroke="rgba(255,255,255,.18)" stroke-width="4"/><rect x="126" y="88" width="168" height="82" rx="12" fill="#183B5B" stroke="#0099FF" stroke-width="4"/><text x="210" y="139" text-anchor="middle" font-family="Inter,Arial,sans-serif" font-size="37" font-weight="800" fill="#EAF7FF">ESP32</text><text x="210" y="168" text-anchor="middle" font-family="JetBrains Mono,Consolas,monospace" font-size="18" fill="#0099FF">DEVKIT</text><rect x="176" y="234" width="68" height="25" rx="8" fill="#DCEBFF" opacity=".9"/><circle cx="368" cy="42" r="12" fill="#0099FF"/><circle cx="330" cy="42" r="11" fill="#FFD54F"/><g stroke="#9DD7FF" stroke-width="6" stroke-linecap="round" opacity=".75"><path d="M0 54h-42M0 92h-42M0 130h-42M0 168h-42M0 206h-42M420 54h42M420 92h42M420 130h42M420 168h42M420 206h42"/></g></g><g transform="translate(720 215) scale(0.9)"><rect x="28" y="112" width="244" height="120" rx="18" fill="#E7F8EF" stroke="#00A884" stroke-width="5"/><path d="M150 118C150 82 102 78 90 42c47 0 66 41 60 76z" fill="#0099FF" opacity=".25" stroke="#00A884" stroke-width="4"/><path d="M150 124c4-47 53-64 78-106 6 55-31 85-78 106z" fill="#00A884" opacity=".22" stroke="#00A884" stroke-width="4"/><path d="M150 188V88" stroke="#00A884" stroke-width="7" stroke-linecap="round"/><rect x="76" y="180" width="148" height="35" rx="10" fill="#08233A"/><text x="150" y="204" text-anchor="middle" font-family="JetBrains Mono,Consolas,monospace" font-size="25" font-weight="800" fill="#0099FF">45%</text><text x="150" y="245" text-anchor="middle" font-family="Inter,Arial,sans-serif" font-size="18" font-weight="800" fill="#075E64">SOIL + PUMP</text></g></g><g opacity=".9"><circle cx="1082" cy="96" r="10" fill="#0099FF"/><circle cx="1050" cy="96" r="8" fill="#00A884"/><path d="M980 96h44" stroke="#00A884" stroke-width="5" stroke-linecap="round" opacity=".45"/></g></svg>
